<svg width="113" height="118" viewBox="0 0 113 118" fill="none" xmlns="http://www.w3.org/2000/svg">
<g id="Group 29976">
<path id="Rectangle 180" d="M0 8C0 3.58172 3.58172 0 8 0H113V4.99999C113 67.4082 62.4082 118 0 118V118V8Z" fill="#D3E5FF"/>
<path id="Vector" d="M70.875 31H27.125C26.2962 31 25.5013 31.3256 24.9153 31.9053C24.3292 32.485 24 33.2711 24 34.0909V61.9091C24 62.7289 24.3292 63.515 24.9153 64.0947C25.5013 64.6744 26.2962 65 27.125 65H70.875C71.7038 65 72.4987 64.6744 73.0847 64.0947C73.6708 63.515 74 62.7289 74 61.9091V34.0909C74 33.2711 73.6708 32.485 73.0847 31.9053C72.4987 31.3256 71.7038 31 70.875 31ZM66.4469 49.5455H47.4375C47.0231 49.5455 46.6257 49.3826 46.3326 49.0928C46.0396 48.803 45.875 48.4099 45.875 48C45.875 47.5901 46.0396 47.197 46.3326 46.9072C46.6257 46.6174 47.0231 46.4545 47.4375 46.4545H66.4469C66.8613 46.4545 67.2587 46.6174 67.5517 46.9072C67.8448 47.197 68.0094 47.5901 68.0094 48C68.0094 48.4099 67.8448 48.803 67.5517 49.0928C67.2587 49.3826 66.8613 49.5455 66.4469 49.5455ZM68.0094 54.1818C68.0094 54.5917 67.8448 54.9848 67.5517 55.2746C67.2587 55.5644 66.8613 55.7273 66.4469 55.7273H47.4375C47.0231 55.7273 46.6257 55.5644 46.3326 55.2746C46.0396 54.9848 45.875 54.5917 45.875 54.1818C45.875 53.7719 46.0396 53.3788 46.3326 53.089C46.6257 52.7992 47.0231 52.6364 47.4375 52.6364H66.4469C66.8613 52.6364 67.2587 52.7992 67.5517 53.089C67.8448 53.3788 68.0094 53.7719 68.0094 54.1818ZM66.4469 43.3636H47.4375C47.0231 43.3636 46.6257 43.2008 46.3326 42.911C46.0396 42.6212 45.875 42.2281 45.875 41.8182C45.875 41.4083 46.0396 41.0152 46.3326 40.7254C46.6257 40.4356 47.0231 40.2727 47.4375 40.2727H66.4469C66.8613 40.2727 67.2587 40.4356 67.5517 40.7254C67.8448 41.0152 68.0094 41.4083 68.0094 41.8182C68.0094 42.2281 67.8448 42.6212 67.5517 42.911C67.2587 43.2008 66.8613 43.3636 66.4469 43.3636ZM36.575 46.1424C39.9844 46.1424 42.75 49.8082 42.75 54.3333C42.75 58.8584 30.3969 58.8584 30.3969 54.3333C30.3969 49.8082 33.1625 46.1424 36.575 46.1424ZM32.7219 40.9156C32.7219 40.4255 32.8195 39.9402 33.0091 39.4874C33.1987 39.0345 33.4767 38.6231 33.8271 38.2765C34.1775 37.9299 34.5935 37.655 35.0513 37.4675C35.5091 37.2799 35.9998 37.1834 36.4953 37.1834C36.9908 37.1834 37.4815 37.2799 37.9393 37.4675C38.3972 37.655 38.8131 37.9299 39.1635 38.2765C39.5139 38.6231 39.7919 39.0345 39.9815 39.4874C40.1711 39.9402 40.2687 40.4255 40.2687 40.9156C40.2687 41.4058 40.1711 41.8911 39.9815 42.3439C39.7919 42.7967 39.5139 43.2082 39.1635 43.5548C38.8131 43.9013 38.3972 44.1762 37.9393 44.3638C37.4815 44.5514 36.9908 44.6479 36.4953 44.6479C35.9998 44.6479 35.5091 44.5514 35.0513 44.3638C34.5935 44.1762 34.1775 43.9013 33.8271 43.5548C33.4767 43.2082 33.1987 42.7967 33.0091 42.3439C32.8195 41.8911 32.7219 41.4058 32.7219 40.9156Z" fill="#296ACB"/>
</g>
</svg>
