<svg width="113" height="118" viewBox="0 0 113 118" fill="none" xmlns="http://www.w3.org/2000/svg">
<g id="Group 29971">
<path id="Rectangle 180" d="M0 8C0 3.58172 3.58172 0 8 0H113V4.99999C113 67.4082 62.4082 118 0 118V118V8Z" fill="#D3FFDE"/>
<path id="Subtract" fill-rule="evenodd" clip-rule="evenodd" d="M18 59.564V59.7777C18 60.0983 18.2154 60.3832 18.4615 60.4545L25.7533 62.9832C26.0302 63.0901 26.3379 62.9476 26.4609 62.6627C27.3568 61.1572 27.9813 59.1803 28.6148 57.1748C28.6557 57.0452 28.6966 56.9156 28.7377 56.7859C28.7765 56.6624 28.8153 56.5353 28.8531 56.4114C28.9353 56.1423 29.0129 55.8881 29.0761 55.7174V55.6818L30.6145 50.3037C30.7521 50.921 30.8897 51.5828 31.0327 52.2705C31.1454 52.8128 31.2615 53.3713 31.3836 53.9366C31.999 57.1065 32.7374 60.7038 33.9373 63.9805C34.976 66.8806 35.135 66.9361 37.6376 67.8085L37.6909 67.8271C37.7807 67.8596 37.8746 67.8933 37.9725 67.9284C38.4108 68.0856 38.9276 68.2709 39.5061 68.5038C39.9531 68.6655 40.4762 68.886 41.0753 69.1384C41.1361 69.164 41.1976 69.1899 41.2598 69.2162C41.331 69.2456 41.4029 69.2753 41.4754 69.3053C43.1565 70.0009 45.1515 70.8263 46.2133 70.997C46.5518 71.0326 46.8594 70.7477 46.921 70.3559C46.921 70.2491 46.921 70.1422 46.8902 70.071C46.7056 69.4299 46.1518 68.2901 45.598 67.1504C45.4751 66.8788 45.3481 66.6071 45.2259 66.3457C45.0117 65.8873 44.8121 65.4605 44.675 65.1202C44.275 64.1586 43.9058 63.1969 43.5366 62.1997C43.4464 61.9647 43.3603 61.7296 43.2722 61.4893C43.1201 61.0742 42.9623 60.6433 42.7674 60.1695L42.7674 60.1694C42.1213 58.5311 41.4752 56.8928 40.8599 55.1832C40.2445 53.5092 39.66 51.8352 39.0754 50.1612L32.0605 29.5392C31.9374 29.183 31.5682 29.0049 31.2606 29.1474C31.1067 29.183 31.0144 29.3255 30.9529 29.4679C29.7977 31.5938 28.8707 33.9838 27.9522 36.3518C27.9166 36.4436 27.881 36.5353 27.8454 36.6269L27.6608 37.0899C27.3292 37.9948 26.9611 38.9208 26.5846 39.868C26.4721 40.151 26.3588 40.436 26.2455 40.7228C25.7225 41.9694 25.1995 43.2516 24.6457 44.7119C24.0611 46.279 22.7996 49.4845 21.5074 52.5476C20.2152 55.5394 18.923 58.3175 18.2154 59.0298C18.0615 59.1723 18 59.386 18 59.564ZM48.4593 61.5586L61.0122 57.427L63.1044 66.1175C61.6276 66.7586 60.0892 67.3641 58.5509 67.8983C55.8741 68.8244 53.1667 69.608 50.5515 70.2134L48.4593 61.5586ZM40.583 45.816C40.6137 45.816 51.4129 45.5311 55.0434 43.3228C55.3511 43.1091 55.4434 42.6817 55.2896 42.3612C55.1357 42.005 54.7665 41.8626 54.4589 42.0406C51.136 44.1064 40.6445 44.3913 40.6137 44.3913C40.2753 44.3913 39.9676 44.6763 39.9676 45.0681C39.9676 45.4598 40.2445 45.816 40.583 45.816ZM49.351 70.4629C49.0127 70.5341 48.6745 70.6053 48.367 70.6765L48.0593 69.608C47.8073 68.7002 47.2494 67.5859 46.8032 66.6948C46.7592 66.6069 46.7163 66.5212 46.6748 66.4381C46.3672 65.797 46.0595 65.1559 45.7826 64.5148C45.3826 63.5531 45.0134 62.5915 44.675 61.6298C44.5365 61.2915 44.4058 60.9442 44.275 60.5969C44.1442 60.2497 44.0135 59.9024 43.875 59.564C43.2289 57.9257 42.6136 56.2873 41.9982 54.6489C41.3829 52.975 40.7983 51.301 40.2138 49.627L33.3527 29.4323C36.491 30.0378 40.2138 30.6433 43.8443 30.8214C48.1516 31.0351 52.3975 30.6789 55.4742 29.0762C55.628 28.9693 55.8434 28.9693 56.028 29.1118C56.3318 29.2876 56.5156 30.0537 56.8163 31.3072L56.8279 31.3556C56.8461 31.4302 56.8648 31.5066 56.8838 31.5849C57.7042 34.9492 59.36 41.7396 62.3967 47.1694L70.3962 61.5586L70.4269 61.6298C70.5808 61.986 70.4885 62.4134 70.1808 62.5915C68.3963 63.66 66.3965 64.6572 64.2428 65.6189L62.0275 56.3942V56.3585C61.9352 55.9668 61.5968 55.7531 61.2584 55.8599L47.5363 60.3832C47.2286 60.4901 47.0133 60.8819 47.1056 61.2736L49.3515 70.4627L49.351 70.4629ZM42.1521 41.4352C42.1828 41.4352 53.0128 41.1502 56.6433 38.942C56.9202 38.7639 57.0433 38.3365 56.8895 37.9803C56.7356 37.6242 56.3664 37.4817 56.0587 37.6954C52.7359 39.7256 42.2136 40.0105 42.1828 40.0105C41.8444 40.0105 41.5675 40.331 41.5675 40.7228C41.5675 41.1146 41.8136 41.4352 42.1521 41.4352ZM39.8446 37.8379C39.8753 37.8379 50.7053 37.5529 54.3358 35.3091C54.6127 35.131 54.7358 34.7036 54.5819 34.3474C54.4281 34.0269 54.0589 33.8844 53.7512 34.0625C50.4284 36.0927 39.9061 36.4132 39.8753 36.4132C39.5369 36.4132 39.26 36.6981 39.26 37.0899C39.26 37.4817 39.5061 37.8023 39.8446 37.8379ZM49.0528 47.5986L50.1417 49.7764L47.9639 50.8653L48.4111 51.7597L50.5889 50.6708L51.6778 52.8486L52.5722 52.4014L51.4833 50.2236L53.6611 49.1347L53.2139 48.2403L51.0361 49.3292L49.9472 47.1514L49.0528 47.5986Z" fill="#46AC60"/>
</g>
</svg>
