<svg width="113" height="118" viewBox="0 0 113 118" fill="none" xmlns="http://www.w3.org/2000/svg">
<g id="Group 29972">
<path id="Rectangle 180" d="M0 8C0 3.58172 3.58172 0 8 0H113V4.99999C113 67.4082 62.4082 118 0 118V118V8Z" fill="#FFD3FB"/>
<path id="Vector" d="M24.6923 32.5714C24.6923 29.4941 27.1717 27 30.2308 27C33.2898 27 35.7692 29.4941 35.7692 32.5714C35.7692 35.6487 33.2898 38.1429 30.2308 38.1429C27.1717 38.1429 24.6923 35.6487 24.6923 32.5714ZM59.7692 38.1429C56.7102 38.1429 54.2308 35.6487 54.2308 32.5714C54.2308 29.4941 56.7102 27 59.7692 27C62.8283 27 65.3077 29.4941 65.3077 32.5714C65.3077 35.6487 62.8283 38.1429 59.7692 38.1429ZM69 47.4286V58.5714C69 59.5966 68.1729 60.4286 67.1538 60.4286H65.3077L63.6277 77.3267C63.5335 78.2776 62.7397 79 61.7908 79H57.7477C56.7988 79 56.0049 78.2776 55.9108 77.3267L54.2308 60.4286V54.8571L45 58.5714L35.7692 54.8571V60.4286L34.0892 77.3267C33.9951 78.2776 33.2012 79 32.2523 79H28.2092C27.2603 79 26.4665 78.2776 26.3723 77.3267L24.6923 60.4286H22.8462C21.8271 60.4286 21 59.5966 21 58.5714V47.4286C21 44.3513 23.4794 41.8571 26.5385 41.8571H33.9231C36.9822 41.8571 39.4615 44.3513 39.4615 47.4286V51.1429L45 54.8571L50.5385 51.1429V47.4286C50.5385 44.3513 53.0178 41.8571 56.0769 41.8571H63.4615C66.5206 41.8571 69 44.3513 69 47.4286Z" fill="#CB29BB"/>
</g>
</svg>
