<svg width="113" height="118" viewBox="0 0 113 118" fill="none" xmlns="http://www.w3.org/2000/svg">
<g id="Group 29970">
<path id="Rectangle 180" d="M0 8C0 3.58172 3.58172 0 8 0H113V4.99999C113 67.4082 62.4082 118 0 118V118V8Z" fill="#FFE1D3"/>
<path id="Vector" d="M49.6 48C54.1104 48 57.8 44.1749 57.8 39.5C57.8 34.8251 54.1104 31 49.6 31C45.0896 31 41.4 34.8251 41.4 39.5C41.4 44.1749 45.0896 48 49.6 48ZM49.6 52.25C44.1677 52.25 33.2 55.1189 33.2 60.75V65H66V60.75C66 55.1189 55.0323 52.25 49.6 52.25ZM33.2 45.1667V39.5H30.4667V45.1667H25V48H30.4667V53.6667H33.2V48H38.6667V45.1667H33.2Z" fill="#CB5929"/>
</g>
</svg>
